<?xml version="1.0" encoding="UTF-8" standalone="no"?>
<!-- Created with Inkscape (http://www.inkscape.org/) -->
<svg xmlns:dc="http://purl.org/dc/elements/1.1/" xmlns:cc="http://web.resource.org/cc/" xmlns:rdf="http://www.w3.org/1999/02/22-rdf-syntax-ns#" xmlns:svg="http://www.w3.org/2000/svg" xmlns="http://www.w3.org/2000/svg" xmlns:sodipodi="http://sodipodi.sourceforge.net/DTD/sodipodi-0.dtd" xmlns:inkscape="http://www.inkscape.org/namespaces/inkscape" version="1.0" width="126.94543" height="887.02075" id="svg2804" sodipodi:version="0.32" inkscape:version="0.45+devel" sodipodi:docname="street lantern.svg" inkscape:output_extension="org.inkscape.output.svg.inkscape" inkscape:export-filename="/home/stefan/street lantern.png" inkscape:export-xdpi="72" inkscape:export-ydpi="72">
  <metadata id="metadata28">
    <rdf:RDF>
      <cc:Work rdf:about="">
        <dc:format>image/svg+xml</dc:format>
        <dc:type rdf:resource="http://purl.org/dc/dcmitype/StillImage"/>
      </cc:Work>
    </rdf:RDF>
  </metadata>
  <sodipodi:namedview inkscape:window-height="689" inkscape:window-width="640" inkscape:pageshadow="2" inkscape:pageopacity="0.0" guidetolerance="10.0" gridtolerance="10.0" objecttolerance="10.0" borderopacity="1.0" bordercolor="#666666" pagecolor="#ffffff" id="base" inkscape:zoom="0.38822204" inkscape:cx="81.400811" inkscape:cy="564.71868" inkscape:window-x="376" inkscape:window-y="20" inkscape:current-layer="svg2804"/>
  <defs id="defs2806"/>
  <g transform="translate(-104.98315,-124.67856)" id="layer1">
    <g transform="matrix(0.5551538,0,0,0.5551538,-23.719726,283.17903)" id="g2938">
      <path d="M 334.84375,60.65625 C 330.58376,61.595235 327.0133,65.145515 326.15625,69.4375 C 324.01861,70.968229 325.24321,74.920778 327.84375,75.0625 C 334.42531,79.223869 336.68685,88.685176 332.96875,95.46875 C 332.09364,107.52911 337.96463,118.75539 338.23006,130.72242 C 341.82745,165.09519 340.0017,199.69946 340.84832,234.18212 C 341.13115,259.43625 341.27931,284.69598 341.11801,309.94918 C 342.07353,318.16614 342.72357,326.45367 342.11259,334.72093 C 341.59448,381.40709 342.91384,428.10143 341.83655,474.78285 C 340.76168,507.06965 339.30764,539.42883 341.57407,571.70016 C 343.52671,608.94953 344.63001,646.28298 343.16969,683.57169 C 342.04775,725.12743 341.16059,766.74128 343.3699,808.2784 C 343.51304,813.39203 344.08043,818.53952 343.79386,823.63706 C 342.7641,828.19086 338.82151,832.3015 340.17739,837.21607 C 342.02746,842.38719 347.63281,845.81991 347.8125,851.65625 C 348.40938,859.47495 342.25602,866.1994 343.46875,874.0625 C 345.07533,878.56766 348.27829,882.95339 347.21548,887.9842 C 346.01851,896.11167 341.12122,902.98581 338.26853,910.55322 C 336.32736,915.49542 334.7284,921.34818 337.37641,926.34692 C 339.39677,930.94795 343.25326,934.9485 343.53084,940.16703 C 342.9085,945.05887 338.18831,947.80556 334.16322,949.76644 C 328.22167,953.24638 322.24313,957.28078 318.59375,963.28125 C 317.81911,967.80342 321.70318,971.03995 323.89179,974.48488 C 330.72305,986.64151 332.4436,1000.7203 334.55872,1014.2747 C 338.69241,1046.4934 336.65461,1079.1113 333.281,1111.2985 C 330.71987,1133.3879 327.93218,1155.5413 322.44369,1177.126 C 318.60431,1191.2112 312.93349,1204.701 307.37115,1218.1639 C 305.42854,1224.471 307.6371,1231.9089 313.00815,1235.8493 C 317.77,1240.2899 323.66927,1243.3677 328.15625,1248.125 C 328.46093,1254.1498 325.88099,1249.7661 323.27365,1255.282 C 319.16247,1258.4533 312.39741,1270.887 314.49145,1274.8139 C 317.55522,1279.0577 324.15417,1283.1022 328.67935,1285.1428 C 332.38901,1286.5007 342.18549,1287.676 345.75,1289.3125 C 353.16561,1291.2543 360.89137,1288.8826 368.34717,1290.5136 C 377.36803,1291.62 386.72833,1292.7142 395.58596,1290.0108 C 405.13752,1287.8667 414.86974,1286.2158 424.09375,1282.875 C 427.99886,1281.0743 431.18679,1276.8305 430.14959,1272.3709 C 429.34188,1266.7313 426.46427,1262.3412 423.90253,1257.2538 C 421.8221,1253.5364 419.92257,1248.5901 415.59974,1247.6006 C 406.87786,1244.7574 420.76366,1236.5102 424.09375,1234.6026 C 428.39819,1232.2128 433.17872,1228.8024 433.61786,1223.4557 C 434.17461,1216.8891 430.49631,1211.0598 428.87798,1204.9029 C 419.01065,1175.9371 409.27699,1146.5354 406.4307,1115.8973 C 403.50006,1084.8385 402.47311,1053.6248 402.40625,1022.4375 C 402.21855,1011.2794 403.90548,1000.149 406.84663,989.40272 C 408.66402,982.72725 411.34411,976.3339 414.29454,970.09355 C 415.81457,966.02123 416.56953,960.65088 413.17817,957.29363 C 409.91808,954.60216 405.40174,953.13158 403.44797,949.10116 C 400.62715,945.56818 395.06146,944.39799 393.83977,939.61475 C 393.08078,935.23393 396.81641,931.99628 399.16869,928.81347 C 401.94348,925.32355 403.13611,920.63356 402,916.28125 C 400.62543,908.85305 395.43063,903.04763 392.12964,896.47362 C 388.83297,888.73197 389.68085,879.93332 391.99636,872.0512 C 393.15323,863.55324 387.0491,855.81267 388.67812,847.28966 C 389.25062,843.37831 390.73959,839.65774 392.46875,836.125 C 380.5957,829.93938 357.58121,841.6604 387.76264,834.57075 C 391.63203,832.27304 391.93536,826.85865 390.10318,823.14946 C 387.13186,811.52614 388.96826,799.45817 388.32097,787.62827 C 387.9139,756.02522 386.69607,724.42763 387.16266,692.8179 C 387.27435,675.29043 388.23071,657.78013 388.40341,640.25536 C 388.29381,608.61608 384.4565,577.07309 385.46667,545.41559 C 385.58516,537.80756 386.27959,530.21617 385.97462,522.60445 C 385.47551,499.42757 384.33827,476.26742 384.09586,453.08414 C 383.75493,429.67007 383.32268,406.2352 381.28818,382.89522 C 378.19931,338.75235 374.01,294.54886 375.58872,250.24805 C 376.59717,206.11095 377.08164,161.94693 379.49915,117.85651 C 379.90102,110.94988 381.447,104.19398 382.77493,97.429164 C 383.39762,93.05704 384.03072,88.135531 381.6875,84.15625 C 378.21016,79.105726 371.97393,77.40698 366.96875,74.34375 C 364.4625,73.028304 360.98156,71.778158 358.65625,74.125 C 356.09056,76.388245 355.99161,81.353613 359.45444,82.827785 C 362.02905,84.174235 364.76428,82.564536 367.1875,81.75 C 370.00373,81.493265 372.98946,84.856705 371.09954,87.44868 C 369.43074,90.301544 365.70267,89.929417 362.89876,89.644128 C 355.94603,89.518102 348.21932,89.772248 342.47069,85.193863 C 336.22901,80.404595 333.24473,71.030224 337.09375,63.875 C 337.52265,62.464386 336.65138,60.166099 334.84375,60.65625 z M 346.5,309.09375 C 349.29041,309.93902 347.78168,314.93006 345,314.15625 C 342.62293,313.00281 343.97811,308.87999 346.5,309.09375 z M 341.90625,920.53125 C 344.02627,920.73341 346.56576,921.35856 347.46875,923.53125 C 345.52326,926.05809 340.6728,923.76079 341.46875,920.65625 C 341.5782,920.56159 341.75436,920.44207 341.90625,920.53125 z M 394.8125,948.25 C 395.95454,948.54094 397.58233,948.20633 398.21875,949.46875 C 396.36673,950.37872 394.12978,950.48345 392.21875,949.6875 C 392.31104,948.46154 393.84409,948.22502 394.8125,948.25 z" id="path2885" style="opacity:1;fill:#000000;fill-opacity:1;stroke:none;stroke-width:2;stroke-linecap:round;stroke-linejoin:round;stroke-miterlimit:4;stroke-dasharray:none;stroke-dashoffset:0;stroke-opacity:1" sodipodi:nodetypes="cccccccccccccccccccccccccccccccccccccccccccccccccccccccccccccccccccccccccccccccccccccccc"/>
      <path d="M 396.58929,-117.4771 C 383.92269,-115.16105 403.94406,-105.76687 399,-116.58425 C 398.40011,-117.25436 397.53551,-117.77013 396.58929,-117.4771 z" id="path2895" style="opacity:0.98999999;fill:#800000;fill-opacity:1;stroke:none;stroke-width:2;stroke-linecap:round;stroke-linejoin:round;stroke-miterlimit:4;stroke-dasharray:none;stroke-dashoffset:0;stroke-opacity:1"/>
      <path d="M 354.28571,-233.3521 C 370.93836,-230.55272 371.42857,-225.73305 380,-221.92352 C 378.24397,-216.39941 384.30433,-203.0589 375.30242,-204.78067 C 364.99649,-209.05783 357.32449,-196.48066 371.76471,-191.73445 C 410.72898,-193.31842 416.08568,-186.30885 398.19506,-177.22899 C 403.2559,-170.77514 401.47338,-172.74527 400.83598,-170.47535 C 402.17634,-163.70053 405.43485,-162.06488 410.74172,-151.31006 C 418.03017,-136.55761 424.42197,-121.17326 432.25898,-106.80739 C 441.50599,-97.560393 450.75299,-88.313392 460,-79.066391 C 454.51757,-75.596804 443.39179,-77.131028 442.15111,-69.900385 C 433.81503,-29.146196 425.47894,11.607993 417.14285,52.362183 C 409.57203,59.51462 400.63046,65.755493 393.91433,73.476313 C 390.42956,78.650014 392.32166,91.185048 383.87423,89.564501 C 366.63044,89.782775 349.38665,90.001048 332.14285,90.219322 C 325.72542,80.370189 319.44155,70.052644 313.30855,60.282171 C 307.34363,55.666685 299.52884,52.366918 294.70527,46.939654 C 283.13685,2.3185925 271.56842,-42.302469 260,-86.923531 C 254.44768,-92.914636 247.13711,-97.940554 242.62683,-104.50369 C 245.4488,-105.38283 254.70294,-107.89485 258.96863,-112.09376 C 266.97801,-113.73073 271.26941,-119.2903 273.76872,-126.74058 C 281.08391,-141.56347 288.3991,-156.38636 295.71429,-171.20924 C 290.11349,-175.76715 286.81645,-183.71547 297.24471,-183.44562 C 307.26527,-185.14014 324.65882,-183.78999 332.77218,-190.88963 C 337.30685,-194.833 340.41214,-202.0615 331.59031,-204.17297 C 324.74036,-203.25896 319.69796,-198.19289 319.76102,-216.80379 C 325.79003,-224.22018 343.33159,-235.73544 354.28571,-233.3521 z" id="path2907" style="fill:#000000;fill-rule:evenodd;stroke:#000000;stroke-width:1px;stroke-linecap:butt;stroke-linejoin:miter;stroke-opacity:1" sodipodi:nodetypes="cccccccccccccccccccccccccc"/>
      <path d="M 394.28571,-100.49496 L 382.85714,35.219325 L 302.14286,40.933611 L 270.71428,-86.923532 L 394.28571,-100.49496 z" id="path2899" style="fill:#fff6d5;fill-rule:evenodd;stroke:#000000;stroke-width:1px;stroke-linecap:butt;stroke-linejoin:miter;stroke-opacity:1"/>
      <path d="M 402.85715,-96.923531 L 389.28571,35.219326 L 411.42857,48.790754 L 434.28571,-73.352103 L 402.85715,-96.923531 z" id="path2901" style="fill:#fff6d5;fill-rule:evenodd;stroke:#000000;stroke-width:1px;stroke-linecap:butt;stroke-linejoin:miter;stroke-opacity:1"/>
      <path d="M 313.57143,48.076467 L 377.14286,42.362182 L 370,50.93361 L 367.85714,57.362182 L 332.14286,60.219324 L 313.57143,48.076467 z" id="path2903" style="fill:#fff6d5;fill-rule:evenodd;stroke:#000000;stroke-width:1px;stroke-linecap:butt;stroke-linejoin:miter;stroke-opacity:1"/>
      <path d="M 386.42857,47.362182 L 396.42857,51.647896 L 388.57143,56.647896 L 376.42857,56.647896 L 377.14286,50.93361 L 380.71429,48.790753 L 382.85715,47.362181 L 386.42857,47.362182 z" id="path2905" style="fill:#fff6d5;fill-rule:evenodd;stroke:#000000;stroke-width:1px;stroke-linecap:butt;stroke-linejoin:miter;stroke-opacity:1"/>
      <path d="M 377.09308,961.46681 C 373.56503,963.13213 369.90849,964.62821 365.86541,964.43556 C 363.58418,964.25211 360.94708,966.88501 363.67791,968.38645 C 371.54472,975.62778 383.06326,971.90224 391.91451,968.83288 C 395.10243,967.57067 398.39043,966.058 401.24487,964.36859 C 393.15348,963.7487 385.09563,962.60648 377.09308,961.46681 z" id="path2910" style="opacity:1;fill:#ececec;fill-opacity:1;stroke:none;stroke-width:2;stroke-linecap:round;stroke-linejoin:round;stroke-miterlimit:4;stroke-dasharray:none;stroke-dashoffset:0;stroke-opacity:1"/>
      <path d="M 365.32969,903.67663 C 362.5223,908.05352 367.48711,914.32841 362.82969,918.14091 C 361.64603,919.74337 357.34838,921.10265 358.47701,923.58734 C 365.28002,928.00513 375.73568,928.572 382.22701,923.25252 C 384.34137,919.87961 380.97989,915.62536 380.13908,912.23822 C 378.78388,910.13223 378.16543,905.91664 375.91005,904.97127 C 374.62466,907.49843 374.02188,912.72006 370.28505,912.47127 C 367.75239,910.39728 368.12359,905.27874 365.32969,903.67663 z" id="path2912" style="opacity:1;fill:#ececec;fill-opacity:1;stroke:none;stroke-width:2;stroke-linecap:round;stroke-linejoin:round;stroke-miterlimit:4;stroke-dasharray:none;stroke-dashoffset:0;stroke-opacity:1"/>
      <path d="M 342.24933,921.31056 C 341.16323,922.20371 344.28646,924.1114 345.28505,924.19002 C 348.06581,924.71818 346.15898,921.50816 344.43683,921.62306 C 343.74036,921.38856 342.98629,921.22288 342.24933,921.31056 z" id="path2914" style="opacity:1;fill:#ececec;fill-opacity:1;stroke:none;stroke-width:2;stroke-linecap:round;stroke-linejoin:round;stroke-miterlimit:4;stroke-dasharray:none;stroke-dashoffset:0;stroke-opacity:1"/>
      <path d="M 371.84755,1014.5918 C 367.86064,1015.0625 362.89775,1013.932 359.36987,1015.6409 C 366.26028,1018.0309 374.28078,1018.2032 381.53505,1017.0918 C 383.96221,1016.557 383.29438,1014.2594 380.93237,1014.7257 C 377.91186,1014.4702 374.87476,1014.5891 371.84755,1014.5918 z" id="path2916" style="opacity:1;fill:#ececec;fill-opacity:1;stroke:none;stroke-width:2;stroke-linecap:round;stroke-linejoin:round;stroke-miterlimit:4;stroke-dasharray:none;stroke-dashoffset:0;stroke-opacity:1"/>
      <path d="M 374.28058,1085.7079 C 371.59538,1086.1299 367.18813,1085.9713 365.84308,1088.6989 C 367.58615,1093.3045 374.86123,1094.382 378.43237,1091.4445 C 379.94032,1088.1027 378.23113,1084.8952 374.28058,1085.7079 z" id="path2918" style="opacity:1;fill:#ececec;fill-opacity:1;stroke:none;stroke-width:2;stroke-linecap:round;stroke-linejoin:round;stroke-miterlimit:4;stroke-dasharray:none;stroke-dashoffset:0;stroke-opacity:1"/>
      <path d="M 389.79398,1221.69 C 389.31413,1227.569 385.29056,1233.5676 378.82117,1233.4123 C 368.38172,1235.3837 357.94929,1230.5515 347.56183,1233.4757 C 341.20816,1234.804 333.40116,1230.3185 328.14219,1235.4623 C 332.02831,1239.1194 337.91158,1240.9441 343.16451,1241.8686 C 344.55013,1241.5963 346.19046,1239.6266 344.34755,1238.8998 C 343.36709,1237.3055 344.00121,1234.3675 346.46808,1235.9088 C 357.93978,1238.0876 368.34821,1245.4756 380.4407,1243.8705 C 388.63311,1243.4405 397.83049,1242.5 404.36987,1237.2704 C 399.99867,1233.7788 394.09592,1231.2167 391.62433,1225.6409 C 390.89004,1224.4075 390.50178,1222.7902 389.79398,1221.69 z" id="path2920" style="opacity:1;fill:#ececec;fill-opacity:1;stroke:none;stroke-width:2;stroke-linecap:round;stroke-linejoin:round;stroke-miterlimit:4;stroke-dasharray:none;stroke-dashoffset:0;stroke-opacity:1"/>
      <path d="M 358.43237,1256.4222 C 353.77017,1258.6777 353.44804,1265.9702 355.39666,1270.2168 C 357.42532,1274.2825 363.50253,1273.6491 364.54844,1269.2123 C 366.35471,1264.6321 363.33058,1257.4657 358.43237,1256.4222 z" id="path2922" style="opacity:1;fill:#ececec;fill-opacity:1;stroke:none;stroke-width:2;stroke-linecap:round;stroke-linejoin:round;stroke-miterlimit:4;stroke-dasharray:none;stroke-dashoffset:0;stroke-opacity:1"/>
      <path d="M 381.42344,1273.9445 C 375.65576,1274.4643 378.63565,1283.1559 383.43237,1281.9802 C 387.1302,1281.2277 387.77874,1275.8666 384.05737,1274.4356 C 383.26762,1273.9622 382.33052,1273.7974 381.42344,1273.9445 z" id="path2924" style="opacity:1;fill:#ececec;fill-opacity:1;stroke:none;stroke-width:2;stroke-linecap:round;stroke-linejoin:round;stroke-miterlimit:4;stroke-dasharray:none;stroke-dashoffset:0;stroke-opacity:1"/>
      <path d="M 405.06183,1272.1364 C 401.35833,1272.9714 404.26716,1278.0763 407.20469,1277.6945 C 409.83692,1278.6878 411.31976,1275.4296 409.01273,1274.0114 C 407.9589,1273.0365 406.5795,1272.0283 405.06183,1272.1364 z" id="path2926" style="opacity:1;fill:#ececec;fill-opacity:1;stroke:none;stroke-width:2;stroke-linecap:round;stroke-linejoin:round;stroke-miterlimit:4;stroke-dasharray:none;stroke-dashoffset:0;stroke-opacity:1"/>
      <path d="M 336.46808,1256.065 C 335.67741,1262.3074 334.51633,1269.1061 337.36395,1275.489 C 338.15455,1277.1856 341.13478,1271.0081 341.82523,1269.1231 C 342.95643,1264.4635 341.18954,1257.8862 336.46808,1256.065 z" id="path2928" style="opacity:1;fill:#ececec;fill-opacity:1;stroke:none;stroke-width:2;stroke-linecap:round;stroke-linejoin:round;stroke-miterlimit:4;stroke-dasharray:none;stroke-dashoffset:0;stroke-opacity:1" sodipodi:nodetypes="cccc"/>
      <path d="M 340.10648,1166.9579 C 338.89617,1169.7137 342.17137,1172.9366 343.11987,1175.5516 C 345.89213,1179.286 347.23416,1183.7295 346.0663,1188.3195 C 346.58912,1192.7219 352.93421,1191.5843 354.99487,1188.8998 C 358.66907,1186.4577 353.85488,1182.3881 352.65112,1179.8373 C 349.06326,1175.1222 345.30222,1169.8615 340.10648,1166.9579 z" id="path2930" style="opacity:1;fill:#ececec;fill-opacity:1;stroke:none;stroke-width:2;stroke-linecap:round;stroke-linejoin:round;stroke-miterlimit:4;stroke-dasharray:none;stroke-dashoffset:0;stroke-opacity:1"/>
      <path d="M 357.02612,139.94895 C 352.75862,140.58861 345.30621,143.20896 347.04844,148.74359 C 351.1647,149.9045 356.94388,150.37678 360.37433,147.27038 C 363.32418,144.65009 360.92201,139.24764 357.02612,139.94895 z" id="path2932" style="opacity:1;fill:#ececec;fill-opacity:1;stroke:none;stroke-width:2;stroke-linecap:round;stroke-linejoin:round;stroke-miterlimit:4;stroke-dasharray:none;stroke-dashoffset:0;stroke-opacity:1"/>
      <path d="M 347.09308,117.33734 C 343.11512,117.17088 342.21823,122.6701 345.93237,123.89984 C 348.96828,125.7689 355.66898,123.8388 354.36987,119.56948 C 352.42485,118.02058 349.56606,117.28687 347.09308,117.33734 z" id="path2934" style="opacity:1;fill:#ececec;fill-opacity:1;stroke:none;stroke-width:2;stroke-linecap:round;stroke-linejoin:round;stroke-miterlimit:4;stroke-dasharray:none;stroke-dashoffset:0;stroke-opacity:1"/>
      <path d="M 360.79844,162.80609 C 359.20582,162.96364 355.53187,164.0206 356.26719,165.97573 C 358.24998,166.88863 364.54966,166.71385 362.71808,163.2302 C 362.23688,162.74217 361.43853,162.76009 360.79844,162.80609 z" id="path2936" style="opacity:1;fill:#ececec;fill-opacity:1;stroke:none;stroke-width:2;stroke-linecap:round;stroke-linejoin:round;stroke-miterlimit:4;stroke-dasharray:none;stroke-dashoffset:0;stroke-opacity:1"/>
    </g>
  </g>
</svg>